name D:\school\WTK\thesis\model\3dpredictsim\Results\debug_batch\Pog_s1_tmt_aCst_d00_k1000_ig24_act_TTC.mot
datacolumns 128
datarows 4
range 0.00000000 0.03892685
endheader
time	pelvis_tilt	pelvis_list	pelvis_rotation	pelvis_tx	pelvis_ty	pelvis_tz	hip_flexion_l	hip_adduction_l	hip_rotation_l	hip_flexion_r	hip_adduction_r	hip_rotation_r	knee_angle_l	knee_angle_r	ankle_angle_l	ankle_angle_r	subtalar_angle_l	subtalar_angle_r	tmt_angle_l	tmt_angle_r	mtp_angle_l	mtp_angle_r	lumbar_extension	lumbar_bending	lumbar_rotation	arm_flex_l	arm_add_l	arm_rot_l	arm_flex_r	arm_add_r	arm_rot_r	elbow_flex_l	elbow_flex_r	pro_sup_l	pro_sup_r	glut_med1_l/activation	glut_med2_l/activation	glut_med3_l/activation	glut_min1_l/activation	glut_min2_l/activation	glut_min3_l/activation	semimem_l/activation	semiten_l/activation	bifemlh_l/activation	bifemsh_l/activation	sar_l/activation	add_long_l/activation	add_brev_l/activation	add_mag1_l/activation	add_mag2_l/activation	add_mag3_l/activation	tfl_l/activation	pect_l/activation	grac_l/activation	glut_max1_l/activation	glut_max2_l/activation	glut_max3_l/activation	iliacus_l/activation	psoas_l/activation	quad_fem_l/activation	gem_l/activation	peri_l/activation	rect_fem_l/activation	vas_med_l/activation	vas_int_l/activation	vas_lat_l/activation	med_gas_l/activation	lat_gas_l/activation	soleus_l/activation	tib_post_l/activation	flex_dig_l/activation	flex_hal_l/activation	tib_ant_l/activation	per_brev_l/activation	per_long_l/activation	per_tert_l/activation	ext_dig_l/activation	ext_hal_l/activation	ercspn_l/activation	intobl_l/activation	extobl_l/activation	glut_med1_r/activation	glut_med2_r/activation	glut_med3_r/activation	glut_min1_r/activation	glut_min2_r/activation	glut_min3_r/activation	semimem_r/activation	semiten_r/activation	bifemlh_r/activation	bifemsh_r/activation	sar_r/activation	add_long_r/activation	add_brev_r/activation	add_mag1_r/activation	add_mag2_r/activation	add_mag3_r/activation	tfl_r/activation	pect_r/activation	grac_r/activation	glut_max1_r/activation	glut_max2_r/activation	glut_max3_r/activation	iliacus_r/activation	psoas_r/activation	quad_fem_r/activation	gem_r/activation	peri_r/activation	rect_fem_r/activation	vas_med_r/activation	vas_int_r/activation	vas_lat_r/activation	med_gas_r/activation	lat_gas_r/activation	soleus_r/activation	tib_post_r/activation	flex_dig_r/activation	flex_hal_r/activation	tib_ant_r/activation	per_brev_r/activation	per_long_r/activation	per_tert_r/activation	ext_dig_r/activation	ext_hal_r/activation	ercspn_r/activation	intobl_r/activation	extobl_r/activation	
          0.00000000	         -2.92863404	         -1.57161455	          9.81364678	          0.00000000	          0.84945291	         -0.00453612	        -17.53497954	         -3.46276712	          8.56384805	         34.75979242	          0.13117777	         -0.88992297	        -14.90125358	        -15.22893040	         -6.29606484	          9.75459613	         17.10685457	         -1.58966562	          1.38801046	          0.01967015	         28.37024545	         -0.07699427	         -0.67273002	         -0.99275541	         -3.94375641	          2.79423044	        -13.57451221	         17.90432605	        -13.13252099	        -13.56898247	          7.17189909	         51.80042245	         18.83545687	         86.51662706	         86.51662706	          0.22372593	          0.08991403	          0.07396239	          0.27043739	          0.13931630	          0.08639573	          0.05000334	          0.05000026	          0.05000024	          0.05000090	          0.09522223	          0.05000035	          0.05000022	          0.05000024	          0.05000046	          0.05000049	          0.17902443	          0.05000137	          0.05000051	          0.05000809	          0.05000321	          0.05000101	          0.39257249	          0.56368169	          0.05000024	          0.05000143	          0.05302570	          0.19389214	          0.10105096	          0.06237506	          0.06779153	          0.17400205	          0.25565232	          0.05908582	          0.17220234	          0.22253960	          0.22905978	          0.05000003	          0.40265197	          0.35189743	          0.05000011	          0.23618305	          0.05000025	          0.05000000	          0.05000002	          0.05000007	          0.05000038	          0.05000026	          0.05000135	          0.05000027	          0.05000032	          0.05000070	          0.14577512	          0.06081742	          0.10899436	          0.06079783	          0.05000141	          0.07445474	          0.09685216	          0.21621345	          0.15178960	          0.10294327	          0.06081315	          0.06078017	          0.07636810	          0.05000071	          0.06373129	          0.06091836	          0.06909244	          0.07252098	          0.20067768	          0.05000205	          0.05000109	          0.05000035	          0.06524693	          0.08280332	          0.06711049	          0.06081310	          0.06081321	          0.06081301	          0.05505397	          0.05000092	          0.07548742	          0.46854116	          0.31074701	          0.20252437	          0.07929089	          0.58703572	          0.15582897	          0.05000055	          0.14350278	          0.11032934	
          0.01297562	         -2.92933147	         -1.51777836	          9.96251264	          0.02155751	          0.84817244	         -0.00409243	        -17.75972116	         -3.70213315	          8.30749502	         33.97954700	          0.46076469	         -0.70774505	        -16.26180846	        -15.24718723	         -9.43357679	          9.03714889	         17.45276818	         -1.94637205	          1.04482190	          0.03619373	         30.13445735	         -0.07570446	         -0.38493748	         -0.81233063	         -4.07432888	          2.13422972	        -13.67356799	         18.16357139	        -14.77602752	        -13.54954508	          7.02273119	         53.26497737	         18.83623752	         86.51662706	         86.51662706	          0.18394596	          0.07392677	          0.06081204	          0.22235178	          0.11454490	          0.07103412	          0.05000293	          0.05000030	          0.05000041	          0.05000045	          0.07829135	          0.13529523	          0.15861355	          0.10928102	          0.05002824	          0.05000216	          0.14719260	          0.08994743	          0.05002239	          0.05000415	          0.05000239	          0.05000195	          0.32277019	          0.46345490	          0.07043678	          0.05490058	          0.06081315	          0.15941666	          0.08371604	          0.11237422	          0.10941140	          0.14306317	          0.21019542	          0.05000004	          0.14158347	          0.18297042	          0.18833125	          0.26259448	          0.41465604	          0.32780531	          0.49062776	          0.43184445	          0.05000041	          0.05410166	          0.06739735	          0.06081356	          0.07184251	          0.07839457	          0.05000036	          0.06080891	          0.05732978	          0.05000802	          0.11985533	          0.05000377	          0.08961446	          0.05000075	          0.05002362	          0.06121630	          0.07963126	          0.21904206	          0.20815688	          0.13241732	          0.05000056	          0.05000181	          0.06278956	          0.06081305	          0.11542881	          0.05008682	          0.05680741	          0.05962631	          0.44937031	          0.06081438	          0.09750798	          0.06920724	          0.23234649	          0.23295336	          0.20387464	          0.05000008	          0.05000017	          0.05000000	          0.05000659	          0.07396397	          0.06206835	          0.67778098	          0.38533520	          0.23386667	          0.50633284	          0.69122506	          0.42161069	          0.05000001	          0.11798691	          0.09071196	
          0.02595123	         -2.92298779	         -1.46666351	         10.06541300	          0.04329768	          0.84651766	         -0.00366622	        -17.76475396	         -3.89348019	          8.04500454	         33.06932776	          0.77736362	         -0.45518869	        -18.02986890	        -15.88478456	        -12.35094469	          8.16891599	         17.74499963	         -2.31593685	          0.72236498	         -0.03776689	         30.89636387	         -0.15537882	         -0.09531928	         -0.61089181	         -4.18247440	          1.40450048	        -13.78030768	         18.33918089	        -16.37037032	        -13.54446169	          6.99300694	         54.70551817	         18.75473271	         86.51662706	         86.51662706	          0.18565716	          0.06078220	          0.05000039	          0.18281625	          0.09417804	          0.05840387	          0.06795115	          0.05000575	          0.05001175	          0.05000041	          0.06437084	          0.15374314	          0.29181946	          0.12180354	          0.06842807	          0.08774959	          0.12102071	          0.07396001	          0.05624281	          0.05003313	          0.05005761	          0.06081053	          0.26537928	          0.38104954	          0.06081280	          0.05000413	          0.05000020	          0.13107119	          0.06883080	          0.09239330	          0.08995728	          0.11762547	          0.17282110	          0.05000001	          0.11640887	          0.15043695	          0.15484457	          0.45113059	          0.48770678	          0.33851576	          0.72688409	          0.55868083	          0.27180487	          0.08930474	          0.05541362	          0.05000049	          0.25871949	          0.31876829	          0.47569845	          0.05000119	          0.05000040	          0.39389452	          0.10940579	          0.05000064	          0.09932973	          0.05000014	          0.05000034	          0.07396473	          0.18985490	          0.23562989	          0.22014991	          0.16011212	          0.05000037	          0.06082808	          0.13306125	          0.05000027	          0.19108614	          0.16606077	          0.05937481	          0.05000181	          0.36946902	          0.05000142	          0.32186577	          0.05690171	          0.19103377	          0.19153289	          0.16762443	          0.06081292	          0.06081295	          0.06081300	          0.06081289	          0.06081286	          0.06081287	          0.56741435	          0.34397550	          0.19228355	          0.52593750	          0.71556679	          0.44381336	          0.06048100	          0.09700796	          0.07458269	
          0.03892685	         -2.91275016	         -1.42369028	         10.11713744	          0.06476696	          0.84463911	         -0.00323029	        -17.48863858	         -4.03939197	          7.79176646	         32.11402638	          1.09110038	         -0.17678565	        -20.30991714	        -16.67040953	        -14.54245744	          7.46800350	         17.96274863	         -2.68768395	          0.49982845	         -0.02387585	         29.53112256	         -0.15741131	          0.16025925	         -0.38489059	         -4.26654144	          0.68553065	        -13.87468970	         18.43481965	        -17.80687276	        -13.55539825	          7.14678827	         56.05379744	         18.51157832	         86.51662706	         86.51662706	          0.29331100	          0.05000011	          0.05000005	          0.23455495	          0.07743257	          0.05000029	          0.10949948	          0.05000013	          0.05000019	          0.05000013	          0.05292577	          0.12640677	          0.24985414	          0.10014690	          0.05626255	          0.07214806	          0.09950239	          0.06082091	          0.05000032	          0.05000112	          0.05000072	          0.05000048	          0.21819289	          0.35184330	          0.05000009	          0.05000047	          0.05000021	          0.10776575	          0.07396556	          0.07596547	          0.07396486	          0.09671078	          0.14209223	          0.05000029	          0.09571051	          0.12368821	          0.12731209	          0.40369124	          0.40098916	          0.27833483	          0.66488846	          0.76277739	          0.22347600	          0.14254188	          0.05000001	          0.05000004	          0.33702301	          0.46757651	          0.56394483	          0.09051107	          0.25996034	          0.32385789	          0.08995265	          0.10035591	          0.08166848	          0.06947403	          0.05000084	          0.06081328	          0.15609729	          0.19373346	          0.22147631	          0.18120857	          0.05000023	          0.05001270	          0.10940229	          0.29741079	          0.26072223	          0.20661052	          0.05000005	          0.05000006	          0.30377886	          0.07793235	          0.26463601	          0.05000003	          0.18573821	          0.25627880	          0.20478051	          0.05000001	          0.05000002	          0.05000000	          0.05000000	          0.05000032	          0.05000016	          0.75656069	          0.42186678	          0.20451250	          0.74581653	          0.84016758	          0.53090730	          0.07919134	          0.07975922	          0.06132133	
